# xmcd
#
# Track frame offsets:
#	150
#	15087
#	31755
#	49297
#	63677
#	78617
#	92317
#	107997
#	123005
#	135637
#	150610
#
# Disc length: 2245 seconds
# Revision: 3
# Processed by: cddbd v1.5.2PL0 Copyright (c) Steve Scherf et al.
# Submitted via: dBpowerAMP V12.0
#
DISCID=7f08c30b
DTITLE=Michelle Wright - For Me It's You
DYEAR=1996
DGENRE=Country
TTITLE0=Nobody's Girl
TTITLE1=The Answer Is Yes
TTITLE2=We've Tried Everything Else
TTITLE3=I'm Not Afraid
TTITLE4=What Love Looks Like
TTITLE5=Crank My Tractor
TTITLE6=You Owe Me
TTITLE7=For Me It's You
TTITLE8=Laid Back Stone Cold
TTITLE9=As Good As It Gets
TTITLE10=Love Has No Pride
EXTD=
EXTT0=
EXTT1=
EXTT2=
EXTT3=
EXTT4=
EXTT5=
EXTT6=
EXTT7=
EXTT8=
EXTT9=
EXTT10=
PLAYORDER=
